<?xml version="1.0" encoding="UTF-8"?>
<svg id="Capa_1" data-name="Capa 1" xmlns="http://www.w3.org/2000/svg" viewBox="0 0 752.73 992.27">
  <defs>
    <style>
      .cls-1 {
        fill: #4b4a4a;
      }

      .cls-2 {
        fill: #1e3a5f;
      }
    </style>
  </defs>
  <g>
    <path class="cls-2" d="M441.96,474.6c-1.66.74-6.83,2.96-13.1,6.71-46.9,28.09-76,77.68-77.79,132.69-1.23,38.44,10.74,77.57,32.06,104.6,28.6,36.21,73.82,55.35,130.68,55.35,19.42,0,37.43-2.12,53.56-6.38l5.93-1.74c1.9-.56,28.26-9.62,41.58-16.73l.89-.45v-77.57c0-16.23,2.8-26.52,8.78-32.46,4.03-3.86,9.3-5.77,16.07-5.77h2.69v-6.06h-98.55v6.06h2.74c6.82,0,12.03,1.9,15.95,5.77,6.09,5.93,8.96,16.23,8.96,32.46v77.79l-1.4.73c-7.94,4.2-16.23,7.5-24.73,9.91-30.39,8.34-61.62,3.81-88.03-12.71-18.02-11.31-32.79-29.33-43.82-53.5-9.74-21.26-15.95-50.93-16.68-79.41-1.67-65.44,31.68-105.52,36.77-110.75,7.18-7.38,15.26-12.9,15.26-12.9"/>
    <path class="cls-2" d="M628.72,606.3c-51.71-22.71-58.16-61.22-82.98-113.38-16.11-36.36-38.75-87.45-62.31-140.6-35.13-79.29-71.41-161.13-104.01-234.69-3.17-6.53-3.17-10.29-9.89-12.12-8.57-1.76-23.23-4.14-29.27,3.06-21.78,55.52-143.4,379.53-164.82,435.14-7.53,17.97-20.57,41.28-37.88,52.95-9.81,6.44-31.99,14.38-27.58,17.72,2.45,3.81,26.59,3.56,36.13,3.39,20.26,0,45.1,0,63.01,0,6.84.15,16.03-.14,21.29-1.74,8.79-2.96-5.11-8.1-9.1-10.52-7.16-3.87-15.4-7.56-20.21-14.44-10.9-17.13-4.03-41.5,1.49-59.25,6.75-21.69,16.53-42.23,23.83-63.71,9.9-29.11,21.32-57.75,32-86.58,10.1-27.27,20.17-54.55,30.28-81.82,9.15-24.68,18.31-49.36,27.59-73.99,2.35-6.24,4.71-12.47,7.09-18.7,1.87-4.91,3.23-11.52,6.11-15.9,1.9-2.89,2.87,0,4.2,2.36,25.86,59.74,86.15,200.39,116.09,270.21,6.93,16.2,14.33,33.45,21.31,49.75,11.01,28.91,29.88,56.32,13.79,80.73-5.56,9.7-49.31,21.99-15.8,23.54,33.68.08,123.8.12,156.7-.02,12.72-.51,17.5-4.09,3.44-11.1l-.53-.28Z"/>
    <circle class="cls-2" cx="359.67" cy="48.93" r="48.93"/>
  </g>
  <g>
    <path class="cls-1" d="M6.61,821.09c2.28-4.04,5.39-7.19,9.32-9.47,3.94-2.28,8.31-3.42,13.11-3.42,5.65,0,10.57,1.36,14.78,4.08,4.21,2.72,7.28,6.59,9.21,11.59h-8.1c-1.44-3.12-3.5-5.52-6.2-7.21-2.7-1.68-5.93-2.53-9.69-2.53s-6.86.84-9.73,2.53c-2.87,1.68-5.13,4.07-6.76,7.17-1.63,3.09-2.45,6.72-2.45,10.88s.82,7.71,2.45,10.81c1.63,3.09,3.89,5.48,6.76,7.17,2.87,1.68,6.12,2.53,9.73,2.53s6.99-.83,9.69-2.49c2.7-1.66,4.77-4.05,6.2-7.17h8.1c-1.93,4.95-5,8.78-9.21,11.48-4.21,2.7-9.14,4.05-14.78,4.05-4.8,0-9.17-1.12-13.11-3.38-3.94-2.25-7.04-5.39-9.32-9.4-2.28-4.01-3.42-8.54-3.42-13.59s1.14-9.59,3.42-13.63Z"/>
    <path class="cls-1" d="M70.45,858.71c-3.1-1.73-5.52-4.2-7.28-7.39-1.76-3.19-2.64-6.89-2.64-11.1s.9-7.84,2.71-11.03c1.81-3.19,4.27-5.65,7.39-7.35s6.61-2.56,10.47-2.56,7.35.85,10.47,2.56c3.12,1.71,5.58,4.15,7.39,7.32,1.81,3.17,2.71,6.86,2.71,11.07s-.93,7.91-2.79,11.1c-1.86,3.19-4.37,5.66-7.54,7.39-3.17,1.73-6.69,2.6-10.55,2.6s-7.27-.87-10.36-2.6ZM87.65,853.66c2.13-1.14,3.85-2.85,5.16-5.12,1.31-2.28,1.97-5.05,1.97-8.32s-.64-6.04-1.93-8.32c-1.29-2.28-2.97-3.97-5.05-5.09-2.08-1.11-4.33-1.67-6.76-1.67s-4.74.56-6.8,1.67c-2.06,1.11-3.7,2.81-4.94,5.09-1.24,2.28-1.86,5.05-1.86,8.32s.61,6.12,1.82,8.39c1.21,2.28,2.83,3.97,4.87,5.09,2.03,1.11,4.26,1.67,6.69,1.67s4.7-.57,6.83-1.71Z"/>
    <path class="cls-1" d="M142.47,823.69c3.07,3,4.61,7.32,4.61,12.96v23.99h-6.69v-23.03c0-4.06-1.02-7.17-3.05-9.32-2.03-2.15-4.8-3.23-8.32-3.23s-6.4,1.11-8.5,3.34c-2.11,2.23-3.16,5.47-3.16,9.73v22.51h-6.76v-40.71h6.76v5.79c1.34-2.08,3.16-3.69,5.46-4.83,2.3-1.14,4.84-1.71,7.61-1.71,4.95,0,8.96,1.5,12.03,4.49Z"/>
    <path class="cls-1" d="M164.15,859.71c-2.48-1.06-4.43-2.55-5.87-4.46-1.44-1.91-2.23-4.1-2.38-6.57h6.98c.2,2.03,1.15,3.69,2.86,4.98,1.71,1.29,3.95,1.93,6.72,1.93,2.57,0,4.61-.57,6.09-1.71,1.49-1.14,2.23-2.57,2.23-4.31s-.79-3.11-2.38-3.97c-1.59-.87-4.04-1.72-7.35-2.56-3.02-.79-5.48-1.6-7.39-2.41-1.91-.82-3.54-2.03-4.9-3.64-1.36-1.61-2.04-3.73-2.04-6.35,0-2.08.62-3.99,1.86-5.72,1.24-1.73,3-3.11,5.27-4.12,2.28-1.01,4.88-1.52,7.8-1.52,4.51,0,8.15,1.14,10.92,3.42,2.77,2.28,4.26,5.4,4.46,9.36h-6.76c-.15-2.13-1-3.84-2.56-5.12-1.56-1.29-3.65-1.93-6.28-1.93-2.43,0-4.36.52-5.79,1.56-1.44,1.04-2.15,2.4-2.15,4.08,0,1.34.43,2.44,1.3,3.31.87.87,1.96,1.56,3.27,2.08,1.31.52,3.13,1.1,5.46,1.75,2.92.79,5.3,1.57,7.13,2.34,1.83.77,3.4,1.92,4.72,3.45,1.31,1.54,1.99,3.54,2.04,6.02,0,2.23-.62,4.23-1.86,6.02-1.24,1.78-2.98,3.18-5.24,4.2-2.25,1.01-4.84,1.52-7.76,1.52-3.12,0-5.92-.53-8.39-1.6Z"/>
    <path class="cls-1" d="M233.01,819.94v40.71h-6.76v-6.02c-1.29,2.08-3.08,3.7-5.39,4.87s-4.84,1.75-7.61,1.75c-3.17,0-6.02-.66-8.54-1.97-2.53-1.31-4.52-3.28-5.98-5.91-1.46-2.62-2.19-5.82-2.19-9.58v-23.84h6.69v22.95c0,4.01,1.01,7.09,3.05,9.25,2.03,2.15,4.8,3.23,8.32,3.23s6.46-1.11,8.54-3.34c2.08-2.23,3.12-5.47,3.12-9.73v-22.36h6.76Z"/>
    <path class="cls-1" d="M251.21,805.68v54.97h-6.76v-54.97h6.76Z"/>
    <path class="cls-1" d="M270.97,825.51v23.99c0,1.98.42,3.38,1.26,4.2.84.82,2.3,1.23,4.38,1.23h4.98v5.72h-6.09c-3.76,0-6.59-.87-8.47-2.6-1.88-1.73-2.82-4.58-2.82-8.54v-23.99h-5.27v-5.57h5.27v-10.25h6.76v10.25h10.62v5.57h-10.62Z"/>
    <path class="cls-1" d="M297.15,858.71c-3.1-1.73-5.52-4.2-7.28-7.39-1.76-3.19-2.64-6.89-2.64-11.1s.9-7.84,2.71-11.03c1.81-3.19,4.27-5.65,7.39-7.35s6.61-2.56,10.47-2.56,7.35.85,10.47,2.56c3.12,1.71,5.58,4.15,7.39,7.32,1.81,3.17,2.71,6.86,2.71,11.07s-.93,7.91-2.79,11.1c-1.86,3.19-4.37,5.66-7.54,7.39-3.17,1.73-6.69,2.6-10.55,2.6s-7.27-.87-10.36-2.6ZM314.34,853.66c2.13-1.14,3.85-2.85,5.16-5.12,1.31-2.28,1.97-5.05,1.97-8.32s-.64-6.04-1.93-8.32c-1.29-2.28-2.97-3.97-5.05-5.09-2.08-1.11-4.33-1.67-6.76-1.67s-4.74.56-6.8,1.67c-2.06,1.11-3.7,2.81-4.94,5.09-1.24,2.28-1.86,5.05-1.86,8.32s.61,6.12,1.82,8.39c1.21,2.28,2.83,3.97,4.87,5.09,2.03,1.11,4.26,1.67,6.69,1.67s4.7-.57,6.83-1.71Z"/>
    <path class="cls-1" d="M349.14,821.13c2.2-1.29,4.89-1.93,8.06-1.93v6.98h-1.78c-7.58,0-11.36,4.11-11.36,12.33v22.13h-6.76v-40.71h6.76v6.61c1.19-2.33,2.88-4.13,5.09-5.42Z"/>
    <path class="cls-1" d="M365.22,811.99c-.89-.89-1.34-1.98-1.34-3.27s.45-2.38,1.34-3.27c.89-.89,1.98-1.34,3.27-1.34s2.29.45,3.16,1.34c.87.89,1.3,1.98,1.3,3.27s-.43,2.38-1.3,3.27c-.87.89-1.92,1.34-3.16,1.34s-2.38-.45-3.27-1.34ZM371.76,819.94v40.71h-6.76v-40.71h6.76Z"/>
    <path class="cls-1" d="M383.27,829.19c1.68-3.14,4-5.58,6.95-7.32,2.95-1.73,6.23-2.6,9.84-2.6s6.66.77,9.29,2.3c2.62,1.54,4.58,3.47,5.87,5.79v-7.43h6.83v40.71h-6.83v-7.58c-1.34,2.38-3.33,4.34-5.98,5.91-2.65,1.56-5.73,2.34-9.25,2.34s-6.88-.89-9.8-2.67c-2.92-1.78-5.22-4.28-6.91-7.5-1.68-3.22-2.53-6.88-2.53-10.99s.84-7.81,2.53-10.96ZM413.36,832.19c-1.24-2.28-2.91-4.02-5.01-5.24-2.11-1.21-4.42-1.82-6.95-1.82s-4.83.59-6.91,1.78c-2.08,1.19-3.74,2.92-4.98,5.2-1.24,2.28-1.86,4.95-1.86,8.02s.62,5.83,1.86,8.13c1.24,2.3,2.9,4.06,4.98,5.27,2.08,1.21,4.38,1.82,6.91,1.82s4.84-.61,6.95-1.82c2.1-1.21,3.78-2.97,5.01-5.27,1.24-2.3,1.86-4.99,1.86-8.06s-.62-5.74-1.86-8.02Z"/>
    <path class="cls-1" d="M453.54,811.99c-.89-.89-1.34-1.98-1.34-3.27s.45-2.38,1.34-3.27c.89-.89,1.98-1.34,3.27-1.34s2.29.45,3.16,1.34c.87.89,1.3,1.98,1.3,3.27s-.43,2.38-1.3,3.27c-.87.89-1.92,1.34-3.16,1.34s-2.38-.45-3.27-1.34ZM460.08,819.94v40.71h-6.76v-40.71h6.76Z"/>
    <path class="cls-1" d="M503.45,823.69c3.07,3,4.61,7.32,4.61,12.96v23.99h-6.69v-23.03c0-4.06-1.02-7.17-3.04-9.32-2.03-2.15-4.8-3.23-8.32-3.23s-6.4,1.11-8.5,3.34c-2.11,2.23-3.16,5.47-3.16,9.73v22.51h-6.76v-40.71h6.76v5.79c1.34-2.08,3.16-3.69,5.46-4.83,2.3-1.14,4.84-1.71,7.61-1.71,4.95,0,8.96,1.5,12.03,4.49Z"/>
    <path class="cls-1" d="M527.37,825.51v23.99c0,1.98.42,3.38,1.26,4.2.84.82,2.3,1.23,4.38,1.23h4.98v5.72h-6.09c-3.76,0-6.59-.87-8.47-2.6s-2.82-4.58-2.82-8.54v-23.99h-5.27v-5.57h5.27v-10.25h6.76v10.25h10.62v5.57h-10.62Z"/>
    <path class="cls-1" d="M583.08,842.82h-32.53c.25,4.01,1.62,7.14,4.12,9.4,2.5,2.25,5.53,3.38,9.1,3.38,2.92,0,5.36-.68,7.32-2.04,1.96-1.36,3.33-3.18,4.12-5.46h7.28c-1.09,3.91-3.27,7.09-6.54,9.54-3.27,2.45-7.33,3.68-12.18,3.68-3.86,0-7.32-.87-10.36-2.6-3.05-1.73-5.44-4.2-7.17-7.39-1.73-3.19-2.6-6.89-2.6-11.1s.84-7.9,2.53-11.07c1.68-3.17,4.05-5.61,7.09-7.32,3.04-1.71,6.55-2.56,10.51-2.56s7.28.84,10.25,2.53c2.97,1.68,5.26,4,6.87,6.95s2.41,6.28,2.41,9.99c0,1.29-.07,2.65-.22,4.08ZM574.61,830.67c-1.14-1.86-2.69-3.27-4.64-4.23s-4.12-1.45-6.5-1.45c-3.42,0-6.33,1.09-8.73,3.27-2.4,2.18-3.78,5.2-4.12,9.06h25.7c0-2.57-.57-4.79-1.71-6.65Z"/>
    <path class="cls-1" d="M618.25,821.57c2.65,1.54,4.62,3.47,5.91,5.79v-7.43h6.83v41.6c0,3.71-.79,7.02-2.38,9.92-1.59,2.9-3.85,5.16-6.8,6.8-2.95,1.63-6.38,2.45-10.29,2.45-5.35,0-9.8-1.26-13.37-3.79-3.57-2.53-5.67-5.97-6.31-10.32h6.69c.74,2.48,2.28,4.47,4.61,5.98,2.33,1.51,5.12,2.27,8.39,2.27,3.71,0,6.75-1.16,9.1-3.49,2.35-2.33,3.53-5.6,3.53-9.8v-8.54c-1.34,2.38-3.32,4.36-5.94,5.94-2.62,1.58-5.7,2.38-9.21,2.38s-6.9-.89-9.84-2.67c-2.95-1.78-5.26-4.28-6.94-7.5-1.68-3.22-2.53-6.88-2.53-10.99s.84-7.81,2.53-10.96c1.68-3.14,4-5.58,6.94-7.32,2.95-1.73,6.23-2.6,9.84-2.6s6.6.77,9.25,2.3ZM622.3,832.19c-1.24-2.28-2.91-4.02-5.01-5.24-2.1-1.21-4.42-1.82-6.94-1.82s-4.83.59-6.91,1.78-3.74,2.92-4.98,5.2c-1.24,2.28-1.86,4.95-1.86,8.02s.62,5.83,1.86,8.13c1.24,2.3,2.9,4.06,4.98,5.27,2.08,1.21,4.38,1.82,6.91,1.82s4.84-.61,6.94-1.82c2.1-1.21,3.78-2.97,5.01-5.27,1.24-2.3,1.86-4.99,1.86-8.06s-.62-5.74-1.86-8.02Z"/>
    <path class="cls-1" d="M654.28,821.13c2.2-1.29,4.89-1.93,8.06-1.93v6.98h-1.78c-7.58,0-11.37,4.11-11.37,12.33v22.13h-6.76v-40.71h6.76v6.61c1.19-2.33,2.88-4.13,5.09-5.42Z"/>
    <path class="cls-1" d="M670.13,829.19c1.68-3.14,4-5.58,6.94-7.32,2.95-1.73,6.23-2.6,9.84-2.6s6.66.77,9.28,2.3c2.62,1.54,4.58,3.47,5.87,5.79v-7.43h6.83v40.71h-6.83v-7.58c-1.34,2.38-3.33,4.34-5.98,5.91-2.65,1.56-5.73,2.34-9.25,2.34s-6.88-.89-9.81-2.67c-2.92-1.78-5.22-4.28-6.91-7.5-1.68-3.22-2.53-6.88-2.53-10.99s.84-7.81,2.53-10.96ZM700.22,832.19c-1.24-2.28-2.91-4.02-5.01-5.24-2.1-1.21-4.42-1.82-6.94-1.82s-4.83.59-6.91,1.78-3.74,2.92-4.98,5.2c-1.24,2.28-1.86,4.95-1.86,8.02s.62,5.83,1.86,8.13c1.24,2.3,2.9,4.06,4.98,5.27,2.08,1.21,4.38,1.82,6.91,1.82s4.84-.61,6.94-1.82c2.1-1.21,3.78-2.97,5.01-5.27,1.24-2.3,1.86-4.99,1.86-8.06s-.62-5.74-1.86-8.02Z"/>
    <path class="cls-1" d="M727.1,805.68v54.97h-6.76v-54.97h6.76Z"/>
    <path class="cls-1" d="M145.1,918.32c1.68-3.14,4.02-5.58,7.02-7.32,3-1.73,6.43-2.6,10.29-2.6,5,0,9.12,1.21,12.37,3.64,3.24,2.43,5.39,5.79,6.43,10.1h-7.28c-.69-2.48-2.04-4.43-4.05-5.87-2.01-1.44-4.49-2.15-7.46-2.15-3.86,0-6.98,1.33-9.36,3.97-2.38,2.65-3.57,6.4-3.57,11.25s1.19,8.69,3.57,11.37c2.38,2.67,5.5,4.01,9.36,4.01,2.97,0,5.45-.69,7.43-2.08,1.98-1.39,3.34-3.37,4.09-5.94h7.28c-1.09,4.16-3.27,7.49-6.54,9.99-3.27,2.5-7.35,3.75-12.26,3.75-3.86,0-7.29-.87-10.29-2.6-3-1.73-5.34-4.18-7.02-7.35-1.68-3.17-2.53-6.88-2.53-11.14s.84-7.88,2.53-11.03Z"/>
    <path class="cls-1" d="M197.58,947.85c-3.1-1.73-5.52-4.2-7.28-7.39-1.76-3.19-2.64-6.89-2.64-11.1s.9-7.84,2.71-11.03c1.81-3.19,4.27-5.65,7.39-7.35s6.61-2.56,10.47-2.56,7.35.85,10.47,2.56c3.12,1.71,5.58,4.15,7.39,7.32,1.81,3.17,2.71,6.86,2.71,11.07s-.93,7.91-2.79,11.1c-1.86,3.19-4.37,5.66-7.54,7.39-3.17,1.73-6.69,2.6-10.55,2.6s-7.27-.87-10.36-2.6ZM214.77,942.8c2.13-1.14,3.85-2.85,5.16-5.12,1.31-2.28,1.97-5.05,1.97-8.32s-.64-6.04-1.93-8.32c-1.29-2.28-2.97-3.97-5.05-5.09-2.08-1.11-4.33-1.67-6.76-1.67s-4.74.56-6.8,1.67c-2.06,1.11-3.7,2.81-4.94,5.09-1.24,2.28-1.86,5.05-1.86,8.32s.61,6.12,1.82,8.39c1.21,2.28,2.83,3.97,4.87,5.09,2.03,1.11,4.26,1.67,6.69,1.67s4.7-.57,6.83-1.71Z"/>
    <path class="cls-1" d="M244.49,894.81v54.97h-6.76v-54.97h6.76Z"/>
    <path class="cls-1" d="M256,918.32c1.68-3.14,4-5.58,6.95-7.32,2.95-1.73,6.23-2.6,9.84-2.6s6.66.77,9.29,2.3c2.62,1.54,4.58,3.47,5.87,5.79v-7.43h6.83v40.71h-6.83v-7.58c-1.34,2.38-3.33,4.34-5.98,5.91-2.65,1.56-5.73,2.34-9.25,2.34s-6.88-.89-9.8-2.67c-2.92-1.78-5.23-4.28-6.91-7.5-1.68-3.22-2.53-6.88-2.53-10.99s.84-7.81,2.53-10.96ZM286.08,921.33c-1.24-2.28-2.91-4.02-5.01-5.24-2.11-1.21-4.42-1.82-6.95-1.82s-4.83.59-6.91,1.78-3.74,2.92-4.98,5.2c-1.24,2.28-1.86,4.95-1.86,8.02s.62,5.83,1.86,8.13c1.24,2.3,2.9,4.06,4.98,5.27,2.08,1.21,4.38,1.82,6.91,1.82s4.84-.61,6.95-1.82c2.1-1.21,3.78-2.97,5.01-5.27,1.24-2.3,1.86-4.99,1.86-8.06s-.62-5.74-1.86-8.02Z"/>
    <path class="cls-1" d="M319.06,910.71c2.67-1.53,5.72-2.3,9.14-2.3,3.66,0,6.96.87,9.88,2.6,2.92,1.73,5.22,4.17,6.91,7.32,1.68,3.15,2.53,6.8,2.53,10.96s-.84,7.78-2.53,10.99c-1.68,3.22-4,5.72-6.95,7.5-2.95,1.78-6.23,2.67-9.84,2.67s-6.6-.77-9.25-2.3c-2.65-1.53-4.64-3.49-5.98-5.87v7.5h-6.76v-54.97h6.76v21.84c1.39-2.43,3.42-4.41,6.09-5.94ZM338.74,921.25c-1.24-2.28-2.91-4.01-5.01-5.2-2.11-1.19-4.42-1.78-6.95-1.78s-4.77.61-6.87,1.82c-2.11,1.21-3.79,2.97-5.05,5.27-1.26,2.3-1.89,4.96-1.89,7.98s.63,5.76,1.89,8.06,2.95,4.06,5.05,5.27c2.1,1.21,4.39,1.82,6.87,1.82s4.84-.61,6.95-1.82c2.1-1.21,3.78-2.97,5.01-5.27,1.24-2.3,1.86-5.01,1.86-8.13s-.62-5.74-1.86-8.02Z"/>
    <path class="cls-1" d="M363.81,947.85c-3.1-1.73-5.52-4.2-7.28-7.39-1.76-3.19-2.64-6.89-2.64-11.1s.9-7.84,2.71-11.03c1.81-3.19,4.27-5.65,7.39-7.35s6.61-2.56,10.47-2.56,7.35.85,10.47,2.56c3.12,1.71,5.58,4.15,7.39,7.32,1.81,3.17,2.71,6.86,2.71,11.07s-.93,7.91-2.79,11.1c-1.86,3.19-4.37,5.66-7.54,7.39-3.17,1.73-6.68,2.6-10.55,2.6s-7.27-.87-10.36-2.6ZM381.01,942.8c2.13-1.14,3.85-2.85,5.16-5.12,1.31-2.28,1.97-5.05,1.97-8.32s-.64-6.04-1.93-8.32c-1.29-2.28-2.97-3.97-5.05-5.09-2.08-1.11-4.33-1.67-6.76-1.67s-4.74.56-6.8,1.67c-2.06,1.11-3.7,2.81-4.94,5.09-1.24,2.28-1.86,5.05-1.86,8.32s.61,6.12,1.82,8.39c1.21,2.28,2.83,3.97,4.87,5.09,2.03,1.11,4.26,1.67,6.69,1.67s4.7-.57,6.83-1.71Z"/>
    <path class="cls-1" d="M415.81,910.26c2.2-1.29,4.89-1.93,8.06-1.93v6.98h-1.78c-7.58,0-11.36,4.11-11.36,12.33v22.13h-6.76v-40.71h6.76v6.61c1.19-2.33,2.88-4.13,5.09-5.42Z"/>
    <path class="cls-1" d="M431.67,918.32c1.68-3.14,4-5.58,6.95-7.32,2.95-1.73,6.23-2.6,9.84-2.6s6.66.77,9.28,2.3c2.62,1.54,4.58,3.47,5.87,5.79v-7.43h6.83v40.71h-6.83v-7.58c-1.34,2.38-3.33,4.34-5.98,5.91-2.65,1.56-5.73,2.34-9.25,2.34s-6.88-.89-9.8-2.67c-2.92-1.78-5.23-4.28-6.91-7.5-1.68-3.22-2.53-6.88-2.53-10.99s.84-7.81,2.53-10.96ZM461.75,921.33c-1.24-2.28-2.91-4.02-5.01-5.24-2.1-1.21-4.42-1.82-6.94-1.82s-4.83.59-6.91,1.78c-2.08,1.19-3.74,2.92-4.98,5.2-1.24,2.28-1.86,4.95-1.86,8.02s.62,5.83,1.86,8.13c1.24,2.3,2.9,4.06,4.98,5.27,2.08,1.21,4.38,1.82,6.91,1.82s4.84-.61,6.94-1.82c2.1-1.21,3.78-2.97,5.01-5.27,1.24-2.3,1.86-4.99,1.86-8.06s-.62-5.74-1.86-8.02Z"/>
    <path class="cls-1" d="M490.12,914.64v23.99c0,1.98.42,3.38,1.26,4.2.84.82,2.3,1.23,4.38,1.23h4.98v5.72h-6.09c-3.76,0-6.59-.87-8.47-2.6s-2.82-4.58-2.82-8.54v-23.99h-5.27v-5.57h5.27v-10.25h6.76v10.25h10.62v5.57h-10.62Z"/>
    <path class="cls-1" d="M509.14,901.13c-.89-.89-1.34-1.98-1.34-3.27s.45-2.38,1.34-3.27c.89-.89,1.98-1.34,3.27-1.34s2.29.45,3.16,1.34c.87.89,1.3,1.98,1.3,3.27s-.43,2.38-1.3,3.27c-.87.89-1.92,1.34-3.16,1.34s-2.38-.45-3.27-1.34ZM515.67,909.07v40.71h-6.76v-40.71h6.76Z"/>
    <path class="cls-1" d="M542.34,943.54l12.63-34.47h7.21l-15.97,40.71h-7.87l-15.97-40.71h7.28l12.7,34.47Z"/>
    <path class="cls-1" d="M568.86,918.32c1.68-3.14,4-5.58,6.94-7.32,2.95-1.73,6.23-2.6,9.84-2.6s6.66.77,9.28,2.3c2.62,1.54,4.58,3.47,5.87,5.79v-7.43h6.83v40.71h-6.83v-7.58c-1.34,2.38-3.33,4.34-5.98,5.91-2.65,1.56-5.73,2.34-9.25,2.34s-6.88-.89-9.81-2.67c-2.92-1.78-5.22-4.28-6.91-7.5-1.68-3.22-2.53-6.88-2.53-10.99s.84-7.81,2.53-10.96ZM598.94,921.33c-1.24-2.28-2.91-4.02-5.01-5.24-2.1-1.21-4.42-1.82-6.94-1.82s-4.83.59-6.91,1.78-3.74,2.92-4.98,5.2c-1.24,2.28-1.86,4.95-1.86,8.02s.62,5.83,1.86,8.13c1.24,2.3,2.9,4.06,4.98,5.27,2.08,1.21,4.38,1.82,6.91,1.82s4.84-.61,6.94-1.82c2.1-1.21,3.78-2.97,5.01-5.27,1.24-2.3,1.86-4.99,1.86-8.06s-.62-5.74-1.86-8.02Z"/>
  </g>
</svg>