<svg width="100" height="100" viewBox="0 0 100 100" fill="none" xmlns="http://www.w3.org/2000/svg">
<path fill-rule="evenodd" clip-rule="evenodd" d="M25.0292 25.1286V49.8478L49.8781 37.4856L25.0292 25.1286Z" fill="#5272FF"/>
<path fill-rule="evenodd" clip-rule="evenodd" d="M-3.8147e-06 37.4856L24.8542 49.8478V25.1286L-3.8147e-06 37.4856Z" fill="#5272FF"/>
<path fill-rule="evenodd" clip-rule="evenodd" d="M-3.8147e-06 37.664V62.3832L24.8542 50.0262L-3.8147e-06 37.664Z" fill="#5272FF"/>
<path fill-rule="evenodd" clip-rule="evenodd" d="M-3.8147e-06 62.5617L24.8542 74.9239V50.2047L-3.8147e-06 62.5617Z" fill="#5272FF"/>
<path fill-rule="evenodd" clip-rule="evenodd" d="M25.0292 50.2047V74.9239L49.8781 62.5617L25.0292 50.2047Z" fill="#5272FF"/>
<path fill-rule="evenodd" clip-rule="evenodd" d="M25.0292 75.1023L49.8781 87.4593V62.7401L25.0292 75.1023Z" fill="#5272FF"/>
<path fill-rule="evenodd" clip-rule="evenodd" d="M50.0583 62.7401V87.4593L74.9072 75.1023L50.0583 62.7401Z" fill="#5272FF"/>
<path fill-rule="evenodd" clip-rule="evenodd" d="M50.0583 87.6378L74.9072 100V75.2808L50.0583 87.6378Z" fill="#5272FF"/>
<path fill-rule="evenodd" clip-rule="evenodd" d="M50.1219 62.5144L74.9761 74.8766V50.1522L50.1219 62.5144Z" fill="#1C9AEA"/>
<path fill-rule="evenodd" clip-rule="evenodd" d="M75.1458 50.1522V74.8766L100 62.5144L75.1458 50.1522Z" fill="#1C9AEA"/>
<path fill-rule="evenodd" clip-rule="evenodd" d="M75.1458 49.9737L100 62.3359V37.6168L75.1458 49.9737Z" fill="#1C9AEA"/>
<path fill-rule="evenodd" clip-rule="evenodd" d="M75.1458 25.0761V49.8005L100 37.4383L75.1458 25.0761Z" fill="#1C9AEA"/>
<path fill-rule="evenodd" clip-rule="evenodd" d="M50.1219 37.4383L74.9761 49.8005V25.0761L50.1219 37.4383Z" fill="#1C9AEA"/>
<path fill-rule="evenodd" clip-rule="evenodd" d="M50.1219 12.5407V37.2598L74.9761 24.8976L50.1219 12.5407Z" fill="#1C9AEA"/>
<path fill-rule="evenodd" clip-rule="evenodd" d="M25.0875 24.8976L49.9364 37.2598V12.5407L25.0875 24.8976Z" fill="#1C9AEA"/>
<path fill-rule="evenodd" clip-rule="evenodd" d="M25.0875 0V24.7244L49.9364 12.3622L25.0875 0Z" fill="#1C9AEA"/>
</svg>
